<svg width="1920" height="1036" viewBox="0 0 1920 1036" fill="none" xmlns="http://www.w3.org/2000/svg">
<g opacity="0.2">
<path d="M-63.5 -73.7115L0 -110.422L63.5 -73.7115V-0.28849L0 36.4225L-63.5 -0.28849V-73.7115Z" fill="#FF5F1F" fill-opacity="0.1" stroke="black"/>
<path d="M64.5 -73.7115L128 -110.422L191.5 -73.7115V-0.28849L128 36.4225L64.5 -0.28849V-73.7115Z" fill="#FF5F1F" fill-opacity="0.1" stroke="black"/>
<path d="M192.5 -73.7115L256 -110.422L319.5 -73.7115V-0.28849L256 36.4225L192.5 -0.28849V-73.7115Z" fill="#FF5F1F" fill-opacity="0.1" stroke="black"/>
<path d="M320.5 -73.7115L384 -110.422L447.5 -73.7115V-0.28849L384 36.4225L320.5 -0.28849V-73.7115Z" fill="#FF5F1F" fill-opacity="0.1" stroke="black"/>
<path d="M448.5 -73.7115L512 -110.422L575.5 -73.7115V-0.28849L512 36.4225L448.5 -0.28849V-73.7115Z" fill="#FF5F1F" fill-opacity="0.1" stroke="black"/>
<path d="M576.5 -73.7115L640 -110.422L703.5 -73.7115V-0.28849L640 36.4225L576.5 -0.28849V-73.7115Z" fill="#FF5F1F" fill-opacity="0.1" stroke="black"/>
<path d="M704.5 -73.7115L768 -110.422L831.5 -73.7115V-0.28849L768 36.4225L704.5 -0.28849V-73.7115Z" fill="#FF5F1F" fill-opacity="0.3" stroke="black"/>
<path d="M832.5 -73.7115L896 -110.422L959.5 -73.7115V-0.28849L896 36.4225L832.5 -0.28849V-73.7115Z" fill="#FF5F1F" fill-opacity="0.1" stroke="black"/>
<path d="M960.5 -73.7115L1024 -110.422L1087.5 -73.7115V-0.28849L1024 36.4225L960.5 -0.28849V-73.7115Z" fill="#FF5F1F" fill-opacity="0.6" stroke="black"/>
<path d="M1088.5 -73.7115L1152 -110.422L1215.5 -73.7115V-0.28849L1152 36.4225L1088.5 -0.28849V-73.7115Z" fill="#FF5F1F" fill-opacity="0.1" stroke="black"/>
<path d="M1216.5 -73.7115L1280 -110.422L1343.5 -73.7115V-0.28849L1280 36.4225L1216.5 -0.28849V-73.7115Z" fill="#FF5F1F" fill-opacity="0.1" stroke="black"/>
<path d="M1344.5 -73.7115L1408 -110.422L1471.5 -73.7115V-0.28849L1408 36.4225L1344.5 -0.28849V-73.7115Z" fill="#FF5F1F" fill-opacity="0.1" stroke="black"/>
<path d="M1472.5 -73.7115L1536 -110.422L1599.5 -73.7115V-0.28849L1536 36.4225L1472.5 -0.28849V-73.7115Z" fill="#FF5F1F" fill-opacity="0.1" stroke="black"/>
<path d="M1600.5 -73.7115L1664 -110.422L1727.5 -73.7115V-0.28849L1664 36.4225L1600.5 -0.28849V-73.7115Z" fill="#FF5F1F" fill-opacity="0.1" stroke="black"/>
<path d="M1728.5 -73.7115L1792 -110.422L1855.5 -73.7115V-0.28849L1792 36.4225L1728.5 -0.28849V-73.7115Z" fill="#FF5F1F" fill-opacity="0.3" stroke="black"/>
<path d="M1856.5 -73.7115L1920 -110.422L1983.5 -73.7115V-0.28849L1920 36.4225L1856.5 -0.28849V-73.7115Z" fill="#FF5F1F" fill-opacity="0.1" stroke="black"/>
<path d="M0.5 37.2885L64 0.577544L127.5 37.2885V110.712L64 147.422L0.5 110.712V37.2885Z" fill="#FF5F1F" fill-opacity="0.1" stroke="black"/>
<path d="M128.5 37.2885L192 0.577544L255.5 37.2885V110.712L192 147.422L128.5 110.712V37.2885Z" fill="#FF5F1F" fill-opacity="0.3" stroke="black"/>
<path d="M256.5 37.2885L320 0.577544L383.5 37.2885V110.712L320 147.422L256.5 110.712V37.2885Z" fill="#FF5F1F" fill-opacity="0.1" stroke="black"/>
<path d="M384.5 37.2885L448 0.577544L511.5 37.2885V110.712L448 147.422L384.5 110.712V37.2885Z" fill="#FF5F1F" fill-opacity="0.1" stroke="black"/>
<path d="M512.5 37.2885L576 0.577544L639.5 37.2885V110.712L576 147.422L512.5 110.712V37.2885Z" fill="#FF5F1F" fill-opacity="0.1" stroke="black"/>
<path d="M640.5 37.2885L704 0.577544L767.5 37.2885V110.712L704 147.422L640.5 110.712V37.2885Z" fill="#FF5F1F" fill-opacity="0.3" stroke="black"/>
<path d="M768.5 37.2885L832 0.577544L895.5 37.2885V110.712L832 147.422L768.5 110.712V37.2885Z" fill="#FF5F1F" fill-opacity="0.1" stroke="black"/>
<path d="M896.5 37.2885L960 0.577544L1023.5 37.2885V110.712L960 147.422L896.5 110.712V37.2885Z" fill="#FF5F1F" fill-opacity="0.1" stroke="black"/>
<path d="M1024.5 37.2885L1088 0.577544L1151.5 37.2885V110.712L1088 147.422L1024.5 110.712V37.2885Z" fill="#FF5F1F" fill-opacity="0.6" stroke="black"/>
<path d="M1152.5 37.2885L1216 0.577544L1279.5 37.2885V110.712L1216 147.422L1152.5 110.712V37.2885Z" fill="#FF5F1F" fill-opacity="0.1" stroke="black"/>
<path d="M1280.5 37.2885L1344 0.577544L1407.5 37.2885V110.712L1344 147.422L1280.5 110.712V37.2885Z" fill="#FF5F1F" fill-opacity="0.1" stroke="black"/>
<path d="M1408.5 37.2885L1472 0.577544L1535.5 37.2885V110.712L1472 147.422L1408.5 110.712V37.2885Z" fill="#FF5F1F" fill-opacity="0.1" stroke="black"/>
<path d="M1536.5 37.2885L1600 0.577544L1663.5 37.2885V110.712L1600 147.422L1536.5 110.712V37.2885Z" fill="#FF5F1F" fill-opacity="0.3" stroke="black"/>
<path d="M1664.5 37.2885L1728 0.577544L1791.5 37.2885V110.712L1728 147.422L1664.5 110.712V37.2885Z" fill="#FF5F1F" fill-opacity="0.3" stroke="black"/>
<path d="M1792.5 37.2885L1856 0.577544L1919.5 37.2885V110.712L1856 147.422L1792.5 110.712V37.2885Z" fill="#FF5F1F" fill-opacity="0.1" stroke="black"/>
<path d="M0.5 259.288L64 222.578L127.5 259.288V332.712L64 369.422L0.5 332.712V259.288Z" fill="#FF5F1F" fill-opacity="0.1" stroke="black"/>
<path d="M128.5 259.288L192 222.578L255.5 259.288V332.712L192 369.422L128.5 332.712V259.288Z" fill="#FF5F1F" fill-opacity="0.1" stroke="black"/>
<path d="M256.5 259.288L320 222.578L383.5 259.288V332.712L320 369.422L256.5 332.712V259.288Z" fill="#FF5F1F" fill-opacity="0.1" stroke="black"/>
<path d="M384.5 259.288L448 222.578L511.5 259.288V332.712L448 369.422L384.5 332.712V259.288Z" fill="#FF5F1F" fill-opacity="0.6" stroke="black"/>
<path d="M512.5 259.288L576 222.578L639.5 259.288V332.712L576 369.422L512.5 332.712V259.288Z" fill="#FF5F1F" fill-opacity="0.1" stroke="black"/>
<path d="M640.5 259.288L704 222.578L767.5 259.288V332.712L704 369.422L640.5 332.712V259.288Z" fill="#FF5F1F" fill-opacity="0.1" stroke="black"/>
<path d="M768.5 259.288L832 222.578L895.5 259.288V332.712L832 369.422L768.5 332.712V259.288Z" fill="#FF5F1F" fill-opacity="0.1" stroke="black"/>
<path d="M896.5 259.288L960 222.578L1023.5 259.288V332.712L960 369.422L896.5 332.712V259.288Z" fill="#FF5F1F" fill-opacity="0.1" stroke="black"/>
<path d="M1024.5 259.288L1088 222.578L1151.5 259.288V332.712L1088 369.422L1024.5 332.712V259.288Z" fill="#FF5F1F" fill-opacity="0.6" stroke="black"/>
<path d="M1152.5 259.288L1216 222.578L1279.5 259.288V332.712L1216 369.422L1152.5 332.712V259.288Z" fill="#FF5F1F" fill-opacity="0.1" stroke="black"/>
<path d="M1280.5 259.288L1344 222.578L1407.5 259.288V332.712L1344 369.422L1280.5 332.712V259.288Z" fill="#FF5F1F" fill-opacity="0.1" stroke="black"/>
<path d="M1408.5 259.288L1472 222.578L1535.5 259.288V332.712L1472 369.422L1408.5 332.712V259.288Z" fill="#FF5F1F" fill-opacity="0.1" stroke="black"/>
<path d="M1536.5 259.288L1600 222.578L1663.5 259.288V332.712L1600 369.422L1536.5 332.712V259.288Z" fill="#FF5F1F" fill-opacity="0.6" stroke="black"/>
<path d="M1664.5 259.288L1728 222.578L1791.5 259.288V332.712L1728 369.422L1664.5 332.712V259.288Z" fill="#FF5F1F" fill-opacity="0.6" stroke="black"/>
<path d="M1792.5 259.288L1856 222.578L1919.5 259.288V332.712L1856 369.422L1792.5 332.712V259.288Z" fill="#FF5F1F" fill-opacity="0.1" stroke="black"/>
<path d="M-63.5 148.288L0 111.578L63.5 148.288V221.712L0 258.422L-63.5 221.712V148.288Z" fill="#FF5F1F" fill-opacity="0.3" stroke="black"/>
<path d="M64.5 148.288L128 111.578L191.5 148.288V221.712L128 258.422L64.5 221.712V148.288Z" fill="#FF5F1F" fill-opacity="0.6" stroke="black"/>
<path d="M192.5 148.288L256 111.578L319.5 148.288V221.712L256 258.422L192.5 221.712V148.288Z" fill="#FF5F1F" fill-opacity="0.6" stroke="black"/>
<path d="M320.5 148.288L384 111.578L447.5 148.288V221.712L384 258.422L320.5 221.712V148.288Z" fill="#FF5F1F" fill-opacity="0.6" stroke="black"/>
<path d="M448.5 148.288L512 111.578L575.5 148.288V221.712L512 258.422L448.5 221.712V148.288Z" fill="#FF5F1F" fill-opacity="0.3" stroke="black"/>
<path d="M576.5 148.288L640 111.578L703.5 148.288V221.712L640 258.422L576.5 221.712V148.288Z" fill="#FF5F1F" fill-opacity="0.3" stroke="black"/>
<path d="M704.5 148.288L768 111.578L831.5 148.288V221.712L768 258.422L704.5 221.712V148.288Z" fill="#FF5F1F" fill-opacity="0.1" stroke="black"/>
<path d="M832.5 148.288L896 111.578L959.5 148.288V221.712L896 258.422L832.5 221.712V148.288Z" fill="#FF5F1F" fill-opacity="0.1" stroke="black"/>
<path d="M960.5 148.288L1024 111.578L1087.5 148.288V221.712L1024 258.422L960.5 221.712V148.288Z" fill="#FF5F1F" fill-opacity="0.1" stroke="black"/>
<path d="M1088.5 148.288L1152 111.578L1215.5 148.288V221.712L1152 258.422L1088.5 221.712V148.288Z" fill="#FF5F1F" fill-opacity="0.6" stroke="black"/>
<path d="M1216.5 148.288L1280 111.578L1343.5 148.288V221.712L1280 258.422L1216.5 221.712V148.288Z" fill="#FF5F1F" fill-opacity="0.1" stroke="black"/>
<path d="M1344.5 148.288L1408 111.578L1471.5 148.288V221.712L1408 258.422L1344.5 221.712V148.288Z" fill="#FF5F1F" fill-opacity="0.1" stroke="black"/>
<path d="M1472.5 148.288L1536 111.578L1599.5 148.288V221.712L1536 258.422L1472.5 221.712V148.288Z" fill="#FF5F1F" fill-opacity="0.3" stroke="black"/>
<path d="M1600.5 148.288L1664 111.578L1727.5 148.288V221.712L1664 258.422L1600.5 221.712V148.288Z" fill="#FF5F1F" fill-opacity="0.1" stroke="black"/>
<path d="M1728.5 148.288L1792 111.578L1855.5 148.288V221.712L1792 258.422L1728.5 221.712V148.288Z" fill="#FF5F1F" fill-opacity="0.1" stroke="black"/>
<path d="M1920 111L1984 148V222L1920 259L1856 222V148L1920 111Z" fill="#FF5F1F" fill-opacity="0.1"/>
<path d="M-63.5 370.288L0 333.578L63.5 370.288V443.712L0 480.422L-63.5 443.712V370.288Z" fill="#FF5F1F" fill-opacity="0.6" stroke="black"/>
<path d="M128 333L192 370V444L128 481L64 444V370L128 333Z" fill="#FF5F1F" fill-opacity="0.1"/>
<path d="M192.5 370.288L256 333.578L319.5 370.288V443.712L256 480.422L192.5 443.712V370.288Z" fill="#FF5F1F" fill-opacity="0.3" stroke="black"/>
<path d="M320.5 370.288L384 333.578L447.5 370.288V443.712L384 480.422L320.5 443.712V370.288Z" fill="#FF5F1F" fill-opacity="0.1" stroke="black"/>
<path d="M448.5 370.288L512 333.578L575.5 370.288V443.712L512 480.422L448.5 443.712V370.288Z" fill="#FF5F1F" fill-opacity="0.6" stroke="black"/>
<path d="M576.5 370.288L640 333.578L703.5 370.288V443.712L640 480.422L576.5 443.712V370.288Z" fill="#FF5F1F" fill-opacity="0.1" stroke="black"/>
<path d="M704.5 370.288L768 333.578L831.5 370.288V443.712L768 480.422L704.5 443.712V370.288Z" fill="#FF5F1F" fill-opacity="0.1" stroke="black"/>
<path d="M832.5 370.288L896 333.578L959.5 370.288V443.712L896 480.422L832.5 443.712V370.288Z" fill="#FF5F1F" fill-opacity="0.1" stroke="black"/>
<path d="M960.5 370.288L1024 333.578L1087.5 370.288V443.712L1024 480.422L960.5 443.712V370.288Z" fill="#FF5F1F" fill-opacity="0.1" stroke="black"/>
<path d="M1088.5 370.288L1152 333.578L1215.5 370.288V443.712L1152 480.422L1088.5 443.712V370.288Z" fill="#FF5F1F" fill-opacity="0.6" stroke="black"/>
<path d="M1216.5 370.288L1280 333.578L1343.5 370.288V443.712L1280 480.422L1216.5 443.712V370.288Z" fill="#FF5F1F" fill-opacity="0.1" stroke="black"/>
<path d="M1344.5 370.288L1408 333.578L1471.5 370.288V443.712L1408 480.422L1344.5 443.712V370.288Z" fill="#FF5F1F" fill-opacity="0.1" stroke="black"/>
<path d="M1472.5 370.288L1536 333.578L1599.5 370.288V443.712L1536 480.422L1472.5 443.712V370.288Z" fill="#FF5F1F" fill-opacity="0.6" stroke="black"/>
<path d="M1600.5 370.288L1664 333.578L1727.5 370.288V443.712L1664 480.422L1600.5 443.712V370.288Z" fill="#FF5F1F" fill-opacity="0.1" stroke="black"/>
<path d="M1728.5 370.288L1792 333.578L1855.5 370.288V443.712L1792 480.422L1728.5 443.712V370.288Z" fill="#FF5F1F" fill-opacity="0.6" stroke="black"/>
<path d="M1856.5 370.288L1920 333.578L1983.5 370.288V443.712L1920 480.422L1856.5 443.712V370.288Z" fill="#FF5F1F" fill-opacity="0.1" stroke="black"/>
<path d="M0.5 481.288L64 444.578L127.5 481.288V554.712L64 591.422L0.5 554.712V481.288Z" fill="#FF5F1F" fill-opacity="0.6" stroke="black"/>
<path d="M128.5 481.288L192 444.578L255.5 481.288V554.712L192 591.422L128.5 554.712V481.288Z" fill="#FF5F1F" fill-opacity="0.6" stroke="black"/>
<path d="M256.5 481.288L320 444.578L383.5 481.288V554.712L320 591.422L256.5 554.712V481.288Z" fill="#FF5F1F" fill-opacity="0.1" stroke="black"/>
<path d="M384.5 481.288L448 444.578L511.5 481.288V554.712L448 591.422L384.5 554.712V481.288Z" fill="#FF5F1F" fill-opacity="0.3" stroke="black"/>
<path d="M512.5 481.288L576 444.578L639.5 481.288V554.712L576 591.422L512.5 554.712V481.288Z" fill="#FF5F1F" fill-opacity="0.6" stroke="black"/>
<path d="M640.5 481.288L704 444.578L767.5 481.288V554.712L704 591.422L640.5 554.712V481.288Z" fill="#FF5F1F" fill-opacity="0.1" stroke="black"/>
<path d="M768.5 481.288L832 444.578L895.5 481.288V554.712L832 591.422L768.5 554.712V481.288Z" fill="#FF5F1F" fill-opacity="0.6" stroke="black"/>
<path d="M896.5 481.288L960 444.578L1023.5 481.288V554.712L960 591.422L896.5 554.712V481.288Z" fill="#FF5F1F" fill-opacity="0.1" stroke="black"/>
<path d="M1024.5 481.288L1088 444.578L1151.5 481.288V554.712L1088 591.422L1024.5 554.712V481.288Z" fill="#FF5F1F" fill-opacity="0.1" stroke="black"/>
<path d="M1152.5 481.288L1216 444.578L1279.5 481.288V554.712L1216 591.422L1152.5 554.712V481.288Z" fill="#FF5F1F" fill-opacity="0.6" stroke="black"/>
<path d="M1280.5 481.288L1344 444.578L1407.5 481.288V554.712L1344 591.422L1280.5 554.712V481.288Z" fill="#FF5F1F" fill-opacity="0.1" stroke="black"/>
<path d="M1408.5 481.288L1472 444.578L1535.5 481.288V554.712L1472 591.422L1408.5 554.712V481.288Z" fill="#FF5F1F" fill-opacity="0.6" stroke="black"/>
<path d="M1536.5 481.288L1600 444.578L1663.5 481.288V554.712L1600 591.422L1536.5 554.712V481.288Z" fill="#FF5F1F" fill-opacity="0.1" stroke="black"/>
<path d="M1664.5 481.288L1728 444.578L1791.5 481.288V554.712L1728 591.422L1664.5 554.712V481.288Z" fill="#FF5F1F" fill-opacity="0.1" stroke="black"/>
<path d="M1792.5 481.288L1856 444.578L1919.5 481.288V554.712L1856 591.422L1792.5 554.712V481.288Z" fill="#FF5F1F" fill-opacity="0.6" stroke="black"/>
<path d="M0.5 703.288L64 666.578L127.5 703.288V776.712L64 813.422L0.5 776.712V703.288Z" fill="#FF5F1F" fill-opacity="0.3" stroke="black"/>
<path d="M128.5 703.288L192 666.578L255.5 703.288V776.712L192 813.422L128.5 776.712V703.288Z" fill="#FF5F1F" fill-opacity="0.1" stroke="black"/>
<path d="M256.5 703.288L320 666.578L383.5 703.288V776.712L320 813.422L256.5 776.712V703.288Z" fill="#FF5F1F" fill-opacity="0.6" stroke="black"/>
<path d="M384.5 703.288L448 666.578L511.5 703.288V776.712L448 813.422L384.5 776.712V703.288Z" fill="#FF5F1F" fill-opacity="0.3" stroke="black"/>
<path d="M512.5 703.288L576 666.578L639.5 703.288V776.712L576 813.422L512.5 776.712V703.288Z" fill="#FF5F1F" fill-opacity="0.1" stroke="black"/>
<path d="M640.5 703.288L704 666.578L767.5 703.288V776.712L704 813.422L640.5 776.712V703.288Z" fill="#FF5F1F" fill-opacity="0.1" stroke="black"/>
<path d="M768.5 703.288L832 666.578L895.5 703.288V776.712L832 813.422L768.5 776.712V703.288Z" fill="#FF5F1F" fill-opacity="0.1" stroke="black"/>
<path d="M896.5 703.288L960 666.578L1023.5 703.288V776.712L960 813.422L896.5 776.712V703.288Z" fill="#FF5F1F" fill-opacity="0.1" stroke="black"/>
<path d="M1024.5 703.288L1088 666.578L1151.5 703.288V776.712L1088 813.422L1024.5 776.712V703.288Z" fill="#FF5F1F" fill-opacity="0.1" stroke="black"/>
<path d="M1152.5 703.288L1216 666.578L1279.5 703.288V776.712L1216 813.422L1152.5 776.712V703.288Z" fill="#FF5F1F" fill-opacity="0.1" stroke="black"/>
<path d="M1280.5 703.288L1344 666.578L1407.5 703.288V776.712L1344 813.422L1280.5 776.712V703.288Z" fill="#FF5F1F" fill-opacity="0.6" stroke="black"/>
<path d="M1408.5 703.288L1472 666.578L1535.5 703.288V776.712L1472 813.422L1408.5 776.712V703.288Z" fill="#FF5F1F" fill-opacity="0.1" stroke="black"/>
<path d="M1536.5 703.288L1600 666.578L1663.5 703.288V776.712L1600 813.422L1536.5 776.712V703.288Z" fill="#FF5F1F" fill-opacity="0.1" stroke="black"/>
<path d="M1664.5 703.288L1728 666.578L1791.5 703.288V776.712L1728 813.422L1664.5 776.712V703.288Z" fill="#FF5F1F" fill-opacity="0.1" stroke="black"/>
<path d="M1792.5 703.288L1856 666.578L1919.5 703.288V776.712L1856 813.422L1792.5 776.712V703.288Z" fill="#FF5F1F" fill-opacity="0.1" stroke="black"/>
<path d="M0.5 925.288L64 888.578L127.5 925.288V998.712L64 1035.42L0.5 998.712V925.288Z" fill="#FF5F1F" fill-opacity="0.6" stroke="black"/>
<path d="M384.5 925.288L448 888.578L511.5 925.288V998.712L448 1035.42L384.5 998.712V925.288Z" fill="#FF5F1F" fill-opacity="0.6" stroke="black"/>
<path d="M512.5 925.288L576 888.578L639.5 925.288V998.712L576 1035.42L512.5 998.712V925.288Z" fill="#FF5F1F" fill-opacity="0.6" stroke="black"/>
<path d="M640.5 925.288L704 888.578L767.5 925.288V998.712L704 1035.42L640.5 998.712V925.288Z" fill="#FF5F1F" fill-opacity="0.3" stroke="black"/>
<path d="M1024.5 925.288L1088 888.578L1151.5 925.288V998.712L1088 1035.42L1024.5 998.712V925.288Z" fill="#FF5F1F" fill-opacity="0.1" stroke="black"/>
<path d="M1152.5 925.288L1216 888.578L1279.5 925.288V998.712L1216 1035.42L1152.5 998.712V925.288Z" fill="#FF5F1F" fill-opacity="0.1" stroke="black"/>
<path d="M-63.5 592.288L0 555.578L63.5 592.288V665.712L0 702.422L-63.5 665.712V592.288Z" fill="#FF5F1F" fill-opacity="0.1" stroke="black"/>
<path d="M128 555L192 592V666L128 703L64 666V592L128 555Z" fill="#FF5F1F" fill-opacity="0.1"/>
<path d="M192.5 592.288L256 555.578L319.5 592.288V665.712L256 702.422L192.5 665.712V592.288Z" fill="#FF5F1F" fill-opacity="0.6" stroke="black"/>
<path d="M320.5 592.288L384 555.578L447.5 592.288V665.712L384 702.422L320.5 665.712V592.288Z" fill="#FF5F1F" fill-opacity="0.1" stroke="black"/>
<path d="M448.5 592.288L512 555.578L575.5 592.288V665.712L512 702.422L448.5 665.712V592.288Z" fill="#FF5F1F" fill-opacity="0.1" stroke="black"/>
<path d="M576.5 592.288L640 555.578L703.5 592.288V665.712L640 702.422L576.5 665.712V592.288Z" fill="#FF5F1F" fill-opacity="0.6" stroke="black"/>
<path d="M704.5 592.288L768 555.578L831.5 592.288V665.712L768 702.422L704.5 665.712V592.288Z" fill="#FF5F1F" fill-opacity="0.6" stroke="black"/>
<path d="M832.5 592.288L896 555.578L959.5 592.288V665.712L896 702.422L832.5 665.712V592.288Z" fill="#FF5F1F" fill-opacity="0.1" stroke="black"/>
<path d="M960.5 592.288L1024 555.578L1087.5 592.288V665.712L1024 702.422L960.5 665.712V592.288Z" fill="#FF5F1F" fill-opacity="0.6" stroke="black"/>
<path d="M1088.5 592.288L1152 555.578L1215.5 592.288V665.712L1152 702.422L1088.5 665.712V592.288Z" fill="#FF5F1F" fill-opacity="0.1" stroke="black"/>
<path d="M1216.5 592.288L1280 555.578L1343.5 592.288V665.712L1280 702.422L1216.5 665.712V592.288Z" fill="#FF5F1F" fill-opacity="0.1" stroke="black"/>
<path d="M1344.5 592.288L1408 555.578L1471.5 592.288V665.712L1408 702.422L1344.5 665.712V592.288Z" fill="#FF5F1F" fill-opacity="0.6" stroke="black"/>
<path d="M1472.5 592.288L1536 555.578L1599.5 592.288V665.712L1536 702.422L1472.5 665.712V592.288Z" fill="#FF5F1F" fill-opacity="0.1" stroke="black"/>
<path d="M1600.5 592.288L1664 555.578L1727.5 592.288V665.712L1664 702.422L1600.5 665.712V592.288Z" fill="#FF5F1F" fill-opacity="0.1" stroke="black"/>
<path d="M1728.5 592.288L1792 555.578L1855.5 592.288V665.712L1792 702.422L1728.5 665.712V592.288Z" fill="#FF5F1F" fill-opacity="0.1" stroke="black"/>
<path d="M1856.5 592.288L1920 555.578L1983.5 592.288V665.712L1920 702.422L1856.5 665.712V592.288Z" fill="#FF5F1F" fill-opacity="0.6" stroke="black"/>
<path d="M128 777L192 814V888L128 925L64 888V814L128 777Z" fill="#FF5F1F" fill-opacity="0.6"/>
<path d="M192.5 814.288L256 777.578L319.5 814.288V887.712L256 924.422L192.5 887.712V814.288Z" fill="#FF5F1F" fill-opacity="0.6" stroke="black"/>
<path d="M320.5 814.288L384 777.578L447.5 814.288V887.712L384 924.422L320.5 887.712V814.288Z" fill="#FF5F1F" fill-opacity="0.6" stroke="black"/>
<path d="M448.5 814.288L512 777.578L575.5 814.288V887.712L512 924.422L448.5 887.712V814.288Z" fill="#FF5F1F" fill-opacity="0.1" stroke="black"/>
<path d="M576.5 814.288L640 777.578L703.5 814.288V887.712L640 924.422L576.5 887.712V814.288Z" fill="#FF5F1F" fill-opacity="0.3" stroke="black"/>
<path d="M704.5 814.288L768 777.578L831.5 814.288V887.712L768 924.422L704.5 887.712V814.288Z" fill="#FF5F1F" fill-opacity="0.3" stroke="black"/>
<path d="M832.5 814.288L896 777.578L959.5 814.288V887.712L896 924.422L832.5 887.712V814.288Z" fill="#FF5F1F" fill-opacity="0.1" stroke="black"/>
<path d="M960.5 814.288L1024 777.578L1087.5 814.288V887.712L1024 924.422L960.5 887.712V814.288Z" fill="#FF5F1F" fill-opacity="0.1" stroke="black"/>
<path d="M1088.5 814.288L1152 777.578L1215.5 814.288V887.712L1152 924.422L1088.5 887.712V814.288Z" fill="#FF5F1F" fill-opacity="0.1" stroke="black"/>
<path d="M1216.5 814.288L1280 777.578L1343.5 814.288V887.712L1280 924.422L1216.5 887.712V814.288Z" fill="#FF5F1F" fill-opacity="0.1" stroke="black"/>
<path d="M1344.5 814.288L1408 777.578L1471.5 814.288V887.712L1408 924.422L1344.5 887.712V814.288Z" fill="#FF5F1F" fill-opacity="0.6" stroke="black"/>
<path d="M1472.5 814.288L1536 777.578L1599.5 814.288V887.712L1536 924.422L1472.5 887.712V814.288Z" fill="#FF5F1F" fill-opacity="0.1" stroke="black"/>
<path d="M1600.5 814.288L1664 777.578L1727.5 814.288V887.712L1664 924.422L1600.5 887.712V814.288Z" fill="#FF5F1F" fill-opacity="0.1" stroke="black"/>
<path d="M1728.5 814.288L1792 777.578L1855.5 814.288V887.712L1792 924.422L1728.5 887.712V814.288Z" fill="#FF5F1F" fill-opacity="0.1" stroke="black"/>
<path d="M1856.5 814.288L1920 777.578L1983.5 814.288V887.712L1920 924.422L1856.5 887.712V814.288Z" fill="#FF5F1F" fill-opacity="0.1" stroke="black"/>
</g>
</svg>
