<svg width="48" height="48" viewBox="0 0 48 48" fill="none" xmlns="http://www.w3.org/2000/svg">
<path d="M10.2539 20.09V19.746C10.2539 12.154 16.4079 6 23.9999 6C31.5919 6 37.7459 12.154 37.7459 19.746V20.09C37.7459 27.012 28.9819 37.432 25.4499 41.352C24.6719 42.216 23.3279 42.216 22.5499 41.352C19.0179 37.432 10.2539 27.012 10.2539 20.09Z" stroke="#0FFF50" stroke-width="3" stroke-linecap="round" stroke-linejoin="round"/>
<path d="M20 19.9099C20 22.1199 21.79 23.9099 24 23.9099C26.21 23.9099 28 22.1199 28 19.9099V19.8359C28 17.6259 26.21 15.8359 24 15.8359C21.79 15.8359 20 17.6259 20 19.8359" stroke="#0FFF50" stroke-width="3" stroke-linecap="round" stroke-linejoin="round"/>
</svg>
