<svg width="40" height="32" viewBox="0 0 40 32" fill="none" xmlns="http://www.w3.org/2000/svg">
<path d="M2 5.564C2 6.746 2.586 7.852 3.564 8.514L15.526 16.62C18.236 18.456 21.792 18.456 24.502 16.62L36.434 8.532C37.414 7.872 38 6.766 38 5.584V5.564C38 3.596 36.404 2 34.436 2H5.564C3.596 2 2 3.596 2 5.564Z" stroke="#0FFF50" stroke-width="3" stroke-linecap="round" stroke-linejoin="round"/>
<path d="M2 6V26C2 28.21 3.79 30 6 30H34C36.21 30 38 28.21 38 26V6" stroke="#0FFF50" stroke-width="3" stroke-linecap="round" stroke-linejoin="round"/>
<path d="M3.17188 28.8279L15.4519 16.5479" stroke="#0FFF50" stroke-width="3" stroke-linecap="round" stroke-linejoin="round"/>
<path d="M24.562 16.5615L36.822 28.8215" stroke="#0FFF50" stroke-width="3" stroke-linecap="round" stroke-linejoin="round"/>
</svg>
