<svg width="119" height="43" viewBox="0 0 119 43" fill="none" xmlns="http://www.w3.org/2000/svg">
<path d="M116.067 23.5108H110.883L109.707 26.7107H108.695L113.017 15.2916H113.934L118.256 26.7107H117.252L116.067 23.5108ZM111.181 22.6873H115.762L113.472 16.468L111.181 22.6873ZM99.9583 21.9579H96.6408V26.7107H95.6683V15.2916H99.378C100.596 15.2916 101.548 15.587 102.233 16.1778C102.918 16.7686 103.26 17.5947 103.26 18.6561C103.26 19.3881 103.046 20.0338 102.617 20.5933C102.188 21.1527 101.613 21.5397 100.892 21.754L103.746 26.6087V26.7107H102.719L99.9583 21.9579ZM96.6408 21.1344H99.5975C100.408 21.1344 101.059 20.9044 101.55 20.4443C102.042 19.9842 102.288 19.3881 102.288 18.6561C102.288 17.8509 102.031 17.2261 101.519 16.7817C101.007 16.3372 100.288 16.115 99.3622 16.115H96.6408V21.1344ZM88.845 21.2364H83.504V25.8951H89.645V26.7107H82.5394V15.2916H89.6058V16.115H83.504V20.4208H88.845V21.2364ZM68.6811 26.7107V15.2916H72.0535C73.277 15.2916 74.2051 15.5438 74.8377 16.0483C75.4704 16.5529 75.7867 17.2967 75.7867 18.2797C75.7867 18.8705 75.6259 19.3842 75.3044 19.8208C74.9828 20.2573 74.5423 20.5697 73.9829 20.758C74.6469 20.9044 75.1815 21.2312 75.5867 21.7383C75.9919 22.2455 76.1945 22.8311 76.1945 23.4951C76.1945 24.5042 75.869 25.2925 75.2181 25.8597C74.5671 26.427 73.6613 26.7107 72.5006 26.7107H68.6811ZM69.6458 21.2207V25.8951H72.5398C73.3659 25.8951 74.0208 25.6846 74.5044 25.2637C74.988 24.8428 75.2299 24.2585 75.2299 23.5108C75.2299 22.805 74.9985 22.2468 74.5358 21.8364C74.0731 21.4259 73.4339 21.2207 72.6182 21.2207H69.6458ZM69.6458 20.4129H72.2809C73.0861 20.3972 73.7097 20.2077 74.1514 19.8443C74.5933 19.4809 74.8142 18.9515 74.8142 18.2562C74.8142 17.5241 74.5854 16.9843 74.1279 16.6366C73.6705 16.2889 72.979 16.115 72.0535 16.115H69.6458V20.4129ZM61.5676 26.7107H60.603V15.2916H61.5676V26.7107ZM53.3248 23.903C53.3248 23.2703 53.1026 22.7697 52.6581 22.4011C52.2138 22.0324 51.4007 21.6821 50.219 21.3501C49.0374 21.0181 48.1747 20.656 47.6309 20.2639C46.8571 19.7097 46.4702 18.9829 46.4702 18.0836C46.4702 17.2104 46.8296 16.5006 47.5485 15.9542C48.2675 15.4079 49.1864 15.1346 50.3054 15.1346C51.0635 15.1346 51.7419 15.281 52.3405 15.5739C52.9392 15.8667 53.4033 16.2745 53.7326 16.7974C54.0621 17.3202 54.2268 17.9032 54.2268 18.5463H53.2542C53.2542 17.7672 52.9876 17.1411 52.4542 16.6679C51.921 16.1947 51.2046 15.9581 50.3054 15.9581C49.4321 15.9581 48.7367 16.1529 48.2191 16.5425C47.7015 16.932 47.4427 17.4404 47.4427 18.0679C47.4427 18.6482 47.6754 19.1214 48.1407 19.4875C48.6061 19.8535 49.3511 20.1763 50.3759 20.456C51.4007 20.7357 52.1772 21.026 52.7052 21.3266C53.2333 21.6273 53.6307 21.9867 53.8973 22.405C54.164 22.8233 54.2974 23.3173 54.2974 23.8873C54.2974 24.7866 53.9379 25.5081 53.219 26.0519C52.5 26.5957 51.5523 26.8675 50.3759 26.8675C49.5707 26.8675 48.8321 26.7238 48.1603 26.4362C47.4885 26.1486 46.9787 25.746 46.631 25.2284C46.2832 24.7108 46.1094 24.1173 46.1094 23.4481H47.0741C47.0741 24.2533 47.3748 24.8885 47.976 25.3538C48.5773 25.8192 49.3772 26.0519 50.3759 26.0519C51.2648 26.0519 51.9785 25.8559 52.517 25.4637C53.0555 25.0716 53.3248 24.5513 53.3248 23.903Z" fill="#EBEFF3"/>
<path d="M35.6344 10.81L35.8516 30.8062L18.643 40.9924L1.21724 31.1824L1 11.1862L18.2086 1L35.6344 10.81Z" fill="#F6FAFF" fill-opacity="0.053"/>
<path fill-rule="evenodd" clip-rule="evenodd" d="M17.7379 0.205214C18.0219 0.0371393 18.3739 0.0333161 18.6615 0.195184L36.0872 10.0052C36.3747 10.1671 36.554 10.47 36.5576 10.8L36.7749 30.7961C36.7785 31.1261 36.6057 31.4329 36.3218 31.6009L19.1132 41.7871C18.8292 41.9552 18.4772 41.959 18.1896 41.7972L0.763912 31.9872C0.476383 31.8254 0.29705 31.5224 0.293466 31.1924L0.0762266 11.1962C0.0726421 10.8663 0.245352 10.5595 0.529299 10.3914L17.7379 0.205214ZM18.22 2.06638L1.92905 11.7094L2.13471 30.6392L18.6311 39.926L34.922 30.283L34.7164 11.3532L18.22 2.06638Z" fill="#EBEFF3" fill-opacity="0.05"/>
<path fill-rule="evenodd" clip-rule="evenodd" d="M1.17357 10.0933C1.77235 10.0925 2.25841 10.5772 2.25921 11.176L2.28587 31.1553C2.28667 31.7541 1.80191 32.2401 1.20312 32.2409C0.604341 32.2417 0.118284 31.757 0.117484 31.1582L0.0908213 11.1789C0.0900222 10.5801 0.574784 10.0941 1.17357 10.0933Z" fill="#FF5F1F"/>
<path fill-rule="evenodd" clip-rule="evenodd" d="M17.2772 0.654854C17.5659 0.130284 18.2252 -0.0608967 18.7498 0.227839L36.1602 9.81099C36.6848 10.0997 36.876 10.759 36.5873 11.2836C36.2985 11.8082 35.6392 11.9994 35.1146 11.7106L17.7042 2.12747C17.1796 1.83874 16.9884 1.17942 17.2772 0.654854Z" fill="#0FFF50"/>
<path fill-rule="evenodd" clip-rule="evenodd" d="M36.7044 30.198C37.0131 30.7111 36.8474 31.3772 36.3343 31.6859L19.3063 41.929C18.7932 42.2377 18.127 42.072 17.8184 41.5589C17.5097 41.0457 17.6755 40.3796 18.1886 40.0709L35.2165 29.8278C35.7296 29.5191 36.3958 29.6849 36.7044 30.198Z" fill="#1F51FF"/>
</svg>
