<svg width="855" height="534" viewBox="0 0 855 534" fill="none" xmlns="http://www.w3.org/2000/svg">
<path d="M704.276 491.384H661.188L651.41 517.98H643.001L678.919 423.07H686.545L722.462 517.98H714.119L704.276 491.384ZM663.665 484.54H701.734L682.699 432.848L663.665 484.54ZM570.384 478.477H542.811V517.98H534.728V423.07H565.561C575.686 423.07 583.596 425.525 589.289 430.436C594.981 435.346 597.828 442.213 597.828 451.034C597.828 457.119 596.046 462.485 592.483 467.135C588.919 471.785 584.139 475.001 578.141 476.783L601.869 517.132V517.98H593.33L570.384 478.477ZM542.811 471.633H567.386C574.122 471.633 579.533 469.721 583.618 465.897C587.702 462.073 589.745 457.119 589.745 451.034C589.745 444.342 587.615 439.149 583.357 435.455C579.098 431.761 573.122 429.914 565.43 429.914H542.811V471.633ZM478.016 472.481H433.625V511.201H484.665V517.98H425.608V423.07H484.34V429.914H433.625V465.701H478.016V472.481ZM310.425 517.98V423.07H338.454C348.624 423.07 356.337 425.167 361.595 429.36C366.854 433.554 369.483 439.736 369.483 447.906C369.483 452.816 368.147 457.086 365.474 460.714C362.801 464.343 359.14 466.94 354.49 468.504C360.009 469.721 364.453 472.437 367.82 476.652C371.188 480.868 372.873 485.735 372.873 491.254C372.873 499.641 370.167 506.193 364.757 510.907C359.346 515.622 351.818 517.98 342.17 517.98H310.425ZM318.443 472.35V511.201H342.496C349.362 511.201 354.805 509.451 358.825 505.953C362.845 502.455 364.854 497.599 364.854 491.384C364.854 485.517 362.931 480.878 359.086 477.467C355.24 474.056 349.927 472.35 343.148 472.35H318.443ZM318.443 465.636H340.345C347.037 465.506 352.219 463.931 355.891 460.91C359.564 457.89 361.4 453.489 361.4 447.71C361.4 441.626 359.498 437.139 355.696 434.249C351.894 431.359 346.146 429.914 338.454 429.914H318.443V465.636ZM251.301 517.98H243.283V423.07H251.301V517.98ZM182.791 494.644C182.791 489.385 180.944 485.224 177.25 482.161C173.557 479.097 166.799 476.185 156.978 473.426C147.157 470.666 139.986 467.656 135.467 464.398C129.035 459.791 125.819 453.75 125.819 446.276C125.819 439.019 128.806 433.119 134.782 428.578C140.757 424.037 148.395 421.766 157.695 421.766C163.996 421.766 169.635 422.983 174.61 425.416C179.587 427.85 183.443 431.24 186.181 435.586C188.919 439.931 190.288 444.777 190.288 450.122H182.204C182.204 443.647 179.988 438.443 175.555 434.51C171.123 430.577 165.169 428.61 157.695 428.61C150.437 428.61 144.658 430.229 140.356 433.467C136.054 436.704 133.902 440.93 133.902 446.146C133.902 450.969 135.836 454.902 139.703 457.944C143.572 460.986 149.764 463.67 158.281 465.994C166.799 468.319 173.253 470.732 177.641 473.23C182.031 475.729 185.334 478.716 187.55 482.193C189.766 485.67 190.875 489.776 190.875 494.513C190.875 501.988 187.887 507.985 181.911 512.504C175.936 517.024 168.059 519.284 158.281 519.284C151.589 519.284 145.451 518.089 139.867 515.698C134.283 513.308 130.045 509.962 127.156 505.66C124.265 501.358 122.82 496.425 122.82 490.863H130.838C130.838 497.555 133.337 502.835 138.335 506.703C143.333 510.571 149.981 512.504 158.281 512.504C165.669 512.504 171.601 510.875 176.077 507.616C180.553 504.356 182.791 500.032 182.791 494.644Z" fill="#D5D9E1"/>
<path d="M565.542 111.37L567.348 277.567L424.319 362.23L279.485 280.695L277.68 114.496L420.709 29.834L565.542 111.37Z" fill="#F6FAFF" fill-opacity="0.053"/>
<path fill-rule="evenodd" clip-rule="evenodd" d="M416.799 23.2282C419.159 21.8313 422.085 21.7995 424.475 23.1449L569.309 104.681C571.698 106.026 573.189 108.544 573.219 111.286L575.024 277.484C575.054 280.226 573.619 282.776 571.259 284.173L428.229 368.835C425.869 370.232 422.943 370.264 420.554 368.919L275.72 287.384C273.33 286.038 271.84 283.52 271.81 280.778L270.004 114.58C269.975 111.837 271.41 109.288 273.77 107.891L416.799 23.2282ZM420.806 38.6972L285.404 118.845L287.113 276.179L424.223 353.366L559.625 273.219L557.915 115.885L420.806 38.6972Z" fill="#EBEFF3" fill-opacity="0.05"/>
<path fill-rule="evenodd" clip-rule="evenodd" d="M279.126 105.412C284.103 105.406 288.143 109.435 288.149 114.412L288.371 280.469C288.378 285.446 284.349 289.486 279.372 289.492C274.395 289.499 270.355 285.47 270.349 280.493L270.127 114.436C270.12 109.459 274.149 105.419 279.126 105.412Z" fill="#FF5F1F"/>
<path fill-rule="evenodd" clip-rule="evenodd" d="M412.861 26.6764C415.295 22.3358 420.787 20.7905 425.128 23.2251L569.195 104.027C573.536 106.461 575.081 111.954 572.646 116.294C570.212 120.635 564.719 122.18 560.379 119.746L416.312 38.944C411.971 36.5095 410.426 31.0171 412.861 26.6764Z" fill="#0FFF50" fill-opacity="0.7"/>
<path fill-rule="evenodd" clip-rule="evenodd" d="M574.437 272.513C577.002 276.777 575.624 282.314 571.36 284.879L429.832 370.015C425.568 372.58 420.031 371.203 417.466 366.938C414.9 362.674 416.278 357.137 420.542 354.571L562.07 269.436C566.334 266.87 571.871 268.248 574.437 272.513Z" fill="#1F51FF"/>
</svg>
