<svg width="855" height="534" viewBox="0 0 855 534" fill="none" xmlns="http://www.w3.org/2000/svg">
<g clip-path="url(#clip0_56_1452)">
<path d="M570.539 111.37L572.345 277.567L429.315 362.23L284.482 280.695L282.676 114.496L425.706 29.834L570.539 111.37Z" fill="#F6FAFF" fill-opacity="0.053"/>
<path fill-rule="evenodd" clip-rule="evenodd" d="M421.795 23.2282C424.155 21.8313 427.081 21.7995 429.471 23.1449L574.305 104.681C576.694 106.026 578.185 108.544 578.215 111.286L580.02 277.484C580.05 280.226 578.615 282.776 576.255 284.173L433.225 368.835C430.865 370.232 427.939 370.264 425.55 368.919L280.716 287.384C278.326 286.038 276.836 283.52 276.806 280.778L275 114.58C274.971 111.837 276.406 109.288 278.766 107.891L421.795 23.2282ZM425.802 38.6972L290.4 118.845L292.109 276.179L429.219 353.366L564.621 273.219L562.911 115.885L425.802 38.6972Z" fill="#EBEFF3" fill-opacity="0.05"/>
<path fill-rule="evenodd" clip-rule="evenodd" d="M284.122 105.412C289.099 105.405 293.139 109.435 293.146 114.411L293.367 280.469C293.374 285.445 289.345 289.485 284.368 289.492C279.391 289.499 275.351 285.469 275.345 280.493L275.123 114.435C275.116 109.459 279.145 105.419 284.122 105.412Z" fill="#FF5F1F"/>
<path fill-rule="evenodd" clip-rule="evenodd" d="M417.857 26.6764C420.291 22.3358 425.784 20.7905 430.124 23.2251L574.191 104.027C578.532 106.461 580.077 111.954 577.642 116.294C575.208 120.635 569.715 122.18 565.375 119.746L421.308 38.944C416.967 36.5095 415.422 31.0171 417.857 26.6764Z" fill="#0FFF50" fill-opacity="0.7"/>
<path fill-rule="evenodd" clip-rule="evenodd" d="M579.433 272.513C581.998 276.777 580.621 282.314 576.356 284.879L434.829 370.015C430.564 372.58 425.027 371.203 422.462 366.938C419.896 362.674 421.274 357.137 425.538 354.571L567.066 269.436C571.33 266.87 576.867 268.248 579.433 272.513Z" fill="#1F51FF"/>
<path d="M194.695 487.184H200.074C199.41 493.957 197.595 499.668 194.629 504.316C191.663 508.921 187.678 512.418 182.676 514.809C177.717 517.155 171.874 518.328 165.145 518.328C159.788 518.328 154.918 517.31 150.535 515.273C146.197 513.193 142.456 510.271 139.312 506.508C136.214 502.701 133.823 498.163 132.141 492.895C130.458 487.626 129.617 481.805 129.617 475.43V461.883C129.617 455.464 130.458 449.642 132.141 444.418C133.823 439.15 136.214 434.634 139.312 430.871C142.456 427.064 146.219 424.142 150.602 422.105C155.029 420.025 159.965 418.984 165.41 418.984C172.007 418.984 177.784 420.158 182.742 422.504C187.701 424.85 191.663 428.348 194.629 432.996C197.595 437.6 199.41 443.289 200.074 450.062H194.695C194.031 444.44 192.504 439.703 190.113 435.852C187.767 431.956 184.535 428.99 180.418 426.953C176.301 424.917 171.298 423.898 165.41 423.898C160.762 423.898 156.578 424.806 152.859 426.621C149.141 428.392 145.953 430.96 143.297 434.324C140.641 437.645 138.582 441.629 137.121 446.277C135.704 450.882 134.996 456.039 134.996 461.75V475.43C134.996 481.052 135.704 486.21 137.121 490.902C138.538 495.551 140.552 499.557 143.164 502.922C145.776 506.242 148.941 508.832 152.66 510.691C156.379 512.507 160.54 513.414 165.145 513.414C171.033 513.414 176.057 512.484 180.219 510.625C184.38 508.721 187.656 505.822 190.047 501.926C192.482 498.03 194.031 493.116 194.695 487.184ZM248.969 507.637L308.535 420.312H313.914V517H308.535V429.543L248.969 517H243.59V420.312H248.969V507.637ZM419.055 420.312V425.227H366.793V517H361.414V420.312H419.055ZM364.004 463.676H391.098C398.004 463.676 403.803 464.805 408.496 467.062C413.189 469.32 416.708 472.441 419.055 476.426C421.445 480.41 422.641 485.036 422.641 490.305C422.641 494.245 421.954 497.853 420.582 501.129C419.254 504.361 417.262 507.172 414.605 509.562C411.993 511.953 408.717 513.79 404.777 515.074C400.837 516.358 396.277 517 391.098 517H361.414V420.312H366.793V512.086H391.098C397.296 512.086 402.298 511.09 406.105 509.098C409.957 507.061 412.768 504.383 414.539 501.062C416.354 497.698 417.262 494.068 417.262 490.172C417.262 486.409 416.354 482.889 414.539 479.613C412.768 476.337 409.957 473.703 406.105 471.711C402.298 469.674 397.296 468.656 391.098 468.656H364.004V463.676ZM528.379 512.086V517H472V512.086H528.379ZM474.391 420.312V517H469.012V420.312H474.391ZM521.605 464.738V469.719H472V464.738H521.605ZM528.246 420.312V425.227H472V420.312H528.246ZM599.719 476.758H571.031V471.844H599.719C605.917 471.844 610.964 470.826 614.859 468.789C618.755 466.708 621.589 463.941 623.359 460.488C625.174 456.991 626.082 453.139 626.082 448.934C626.082 444.595 625.174 440.633 623.359 437.047C621.589 433.461 618.755 430.605 614.859 428.48C610.964 426.311 605.917 425.227 599.719 425.227H573.82V517H568.441V420.312H599.719C606.669 420.312 612.491 421.508 617.184 423.898C621.921 426.289 625.484 429.632 627.875 433.926C630.266 438.176 631.461 443.134 631.461 448.801C631.461 454.556 630.266 459.536 627.875 463.742C625.484 467.904 621.943 471.113 617.25 473.371C612.557 475.629 606.714 476.758 599.719 476.758ZM693.105 424.43L658.707 517H652.996L689.32 420.312H693.77L693.105 424.43ZM725.645 517L691.312 424.43L690.648 420.312H695.031L731.422 517H725.645ZM717.145 483.863V488.844H667.539V483.863H717.145Z" fill="#D5D9E1"/>
</g>
<defs>
<clipPath id="clip0_56_1452">
<rect width="854.4" height="534" fill="white"/>
</clipPath>
</defs>
</svg>
