<svg width="38" height="38" viewBox="0 0 38 38" fill="none" xmlns="http://www.w3.org/2000/svg">
<path d="M16.7118 21.2877C14.3718 18.9477 12.6078 16.3277 11.4358 13.6697C11.1878 13.1077 11.3338 12.4497 11.7678 12.0157L13.4058 10.3797C14.7478 9.03774 14.7478 7.13974 13.5758 5.96774L11.2278 3.61974C9.66581 2.05774 7.1338 2.05774 5.5718 3.61974L4.2678 4.92374C2.7858 6.40574 2.1678 8.54374 2.5678 10.6637C3.5558 15.8897 6.5918 21.6117 11.4898 26.5097C16.3878 31.4077 22.1098 34.4437 27.3358 35.4317C29.4558 35.8317 31.5938 35.2137 33.0758 33.7317L34.3778 32.4297C35.9398 30.8677 35.9398 28.3357 34.3778 26.7737L32.0318 24.4277C30.8598 23.2557 28.9598 23.2557 27.7898 24.4277L25.9838 26.2357C25.5498 26.6697 24.8918 26.8157 24.3298 26.5677C21.6718 25.3937 19.0518 23.6277 16.7118 21.2877Z" stroke="#0FFF50" stroke-width="3" stroke-linecap="round" stroke-linejoin="round"/>
</svg>
